<?xml version="1.0" encoding="UTF-8" standalone="no"?>
<svg
   xmlns:dc="http://purl.org/dc/elements/1.1/"
   xmlns:cc="http://creativecommons.org/ns#"
   xmlns:rdf="http://www.w3.org/1999/02/22-rdf-syntax-ns#"
   xmlns:svg="http://www.w3.org/2000/svg"
   xmlns="http://www.w3.org/2000/svg"
   xmlns:sodipodi="http://sodipodi.sourceforge.net/DTD/sodipodi-0.dtd"
   xmlns:inkscape="http://www.inkscape.org/namespaces/inkscape"
   width="64"
   height="64"
   version="1.1"
   id="svg24"
   sodipodi:docname="pixelitor.svgz"
   inkscape:version="0.92.4 (5da689c313, 2019-01-14)">
  <metadata
     id="metadata30">
    <rdf:RDF>
      <cc:Work
         rdf:about="">
        <dc:format>image/svg+xml</dc:format>
        <dc:type
           rdf:resource="http://purl.org/dc/dcmitype/StillImage" />
        <dc:title></dc:title>
      </cc:Work>
    </rdf:RDF>
  </metadata>
  <defs
     id="defs28" />
  <sodipodi:namedview
     pagecolor="#ffffff"
     bordercolor="#666666"
     borderopacity="1"
     objecttolerance="10"
     gridtolerance="10"
     guidetolerance="10"
     inkscape:pageopacity="0"
     inkscape:pageshadow="2"
     inkscape:window-width="640"
     inkscape:window-height="480"
     id="namedview26"
     showgrid="false"
     inkscape:zoom="2"
     inkscape:cx="26.075249"
     inkscape:cy="20.012278"
     inkscape:current-layer="svg24" />
  <circle
     style="opacity:0.2"
     cx="19.942614"
     cy="41.588436"
     r="16"
     id="circle18" />
  <g
     id="g865"
     transform="translate(7.6315712,-17.227285)">
    <circle
       id="circle861"
       r="16"
       cy="41.854694"
       cx="22.824074"
       style="opacity:0.2" />
    <circle
       id="circle863"
       r="16"
       cy="40.854694"
       cx="22.824074"
       style="fill:#cc0000" />
  </g>
  <g
     transform="translate(18.565125,0.01408816)"
     id="g859">
    <circle
       style="opacity:0.2"
       cx="22.824074"
       cy="41.854694"
       r="16"
       id="circle855" />
    <circle
       style="fill:#3465a4"
       cx="22.824074"
       cy="40.854694"
       r="16"
       id="circle857" />
  </g>
  <circle
     style="fill:#73d216"
     cx="19.942614"
     cy="40.588436"
     r="16"
     id="circle20" />
  <path
     style="fill:#729fcf"
     d="m 30.849918,28.845085 a 16,16 0 0 0 -5.431641,11.986327 16,16 0 0 0 5.123047,11.70703 16,16 0 0 0 5.431641,-11.98633 16,16 0 0 0 -5.123047,-11.707027 z"
     id="circle871"
     inkscape:connector-curvature="0" />
  <path
     inkscape:connector-curvature="0"
     id="path880"
     d="m 35.670378,37.460039 c -0.949629,-4.582763 -3.833777,-8.600107 -7.987574,-10.948684 -4.030327,-2.261194 -8.716217,-2.368878 -13.152925,-1.038809 0.949629,4.582765 3.922401,8.32998 8.0762,10.678557 4.030326,2.261192 8.627592,2.639004 13.064299,1.308936 z"
     style="fill:#edd400;stroke-width:1.03159761"
     sodipodi:nodetypes="ccccc" />
  <path
     sodipodi:nodetypes="ccccc"
     style="fill:#ad7fa8;fill-opacity:1;stroke-width:1.01307213"
     d="m 25.773434,37.520298 c 0.922917,-4.547559 3.744713,-8.56486 7.781672,-10.895396 3.916962,-2.243824 8.471048,-2.35068 12.78296,-1.030829 -0.922918,4.547562 -3.812072,8.265991 -7.849033,10.596527 -3.916961,2.243822 -8.403688,2.64955 -12.715599,1.329698 z"
     id="path884"
     inkscape:connector-curvature="0" />
  <path
     style="fill:#ffffff;stroke-width:1.004583"
     d="m 30.714068,28.721154 c -2.01038,1.779146 -3.400895,4.020862 -4.320393,6.550197 -0.0039,0.01115 -0.0078,0.0223 -0.01174,0.03345 -0.134669,0.384859 -0.25476,0.774721 -0.360011,1.168744 -0.06,0.222228 -0.121366,0.444158 -0.17218,0.668977 -0.02693,0.125615 -0.05237,0.251549 -0.07631,0.377776 3.306756,1.013523 6.715594,1.033303 9.896944,-0.06026 -0.657544,-3.33155 -2.480114,-6.42895 -4.95631,-8.738885 z"
     id="path886"
     inkscape:connector-curvature="0"
     sodipodi:nodetypes="cccccccc" />
</svg>
